<?xml version="1.0" standalone="no"?>
<!DOCTYPE svg PUBLIC "-//W3C//DTD SVG 20010904//EN"
 "http://www.w3.org/TR/2001/REC-SVG-20010904/DTD/svg10.dtd">
<svg version="1.0" xmlns="http://www.w3.org/2000/svg"
 width="400.000000pt" height="400.000000pt" viewBox="0 0 400.000000 400.000000"
 preserveAspectRatio="xMidYMid meet">
<metadata>
Created by potrace 1.11, written by Peter Selinger 2001-2013
</metadata>
<g transform="translate(0.000000,400.000000) scale(0.100000,-0.100000)"
fill="#000000" stroke="none">
<path d="M1960 3871 c-54 -56 -121 -112 -190 -161 -19 -13 -38 -29 -42 -35 -4
-5 -8 -6 -8 -2 0 5 -16 -1 -35 -13 -92 -57 -310 -145 -405 -164 -14 -3 -56
-12 -95 -20 -104 -22 -187 -30 -320 -30 -161 0 -196 5 -345 51 -8 2 -17 4 -19
3 -2 -1 -7 2 -10 7 -3 5 -27 21 -53 36 -27 15 -48 33 -48 40 0 7 -4 6 -9 -3
-38 -69 -50 -760 -17 -990 3 -19 10 -72 16 -117 6 -45 13 -92 16 -105 2 -13 7
-36 9 -53 6 -39 13 -72 19 -93 3 -9 7 -28 10 -42 19 -98 25 -121 35 -133 6 -8
8 -16 5 -19 -5 -5 11 -61 58 -203 10 -33 23 -69 28 -80 5 -11 25 -62 44 -112
19 -51 41 -103 48 -115 7 -13 12 -25 13 -28 1 -16 89 -180 97 -180 5 0 7 -4 3
-9 -3 -5 1 -15 8 -23 7 -7 15 -17 16 -23 7 -25 83 -145 91 -145 6 0 9 -4 8 -9
-3 -8 37 -67 138 -207 18 -23 35 -40 38 -37 3 4 6 1 6 -6 0 -7 6 -18 12 -25 7
-7 33 -36 58 -65 74 -87 230 -236 243 -233 7 2 9 0 5 -4 -8 -7 5 -20 76 -77
21 -18 43 -37 50 -43 12 -11 158 -119 195 -144 13 -8 27 -14 33 -12 5 1 7 -1
5 -5 -3 -5 53 -43 125 -86 l130 -78 77 42 c42 23 78 46 79 50 2 5 8 9 13 9 12
0 193 121 197 132 2 4 8 8 13 8 6 0 15 5 22 10 7 6 41 33 77 62 101 79 135
111 132 122 -2 6 0 8 4 4 8 -9 130 102 126 115 -1 4 2 7 7 7 13 0 126 120 123
131 -1 5 4 9 10 10 15 0 128 141 128 158 0 6 4 11 9 11 5 0 26 26 47 58 21 31
40 59 43 62 15 12 60 90 54 90 -5 0 -3 4 3 8 13 8 89 135 85 141 -1 2 1 7 6
10 12 9 68 123 65 133 -1 4 2 8 8 8 5 0 10 4 10 10 0 5 14 40 31 77 27 60 86
210 93 238 2 6 6 17 9 25 14 35 59 182 63 205 1 6 3 13 4 18 1 4 4 12 5 17 1
6 3 11 5 13 1 1 3 9 5 17 2 8 6 29 10 45 4 17 8 41 10 55 2 14 8 37 14 53 6
15 8 27 5 27 -4 0 -1 6 5 13 6 8 9 16 6 19 -3 2 2 38 9 79 8 41 17 97 20 124
4 28 9 66 11 85 29 221 28 716 -2 930 -3 25 -6 51 -6 58 0 18 -15 15 -40 -9
-12 -12 -34 -26 -49 -31 -17 -6 -25 -15 -21 -21 3 -7 3 -9 -2 -5 -4 4 -22 1
-40 -6 -126 -53 -431 -69 -605 -31 -14 3 -38 8 -55 11 -16 3 -48 10 -70 15
-22 6 -49 12 -60 14 -115 22 -385 150 -486 230 -14 11 -38 29 -53 40 -16 11
-49 40 -75 65 -25 25 -50 44 -54 42 -5 -1 -6 2 -3 7 3 5 0 13 -7 19 -9 8 -24
-2 -57 -37z"/>
</g>
</svg>
